<svg xmlns="http://www.w3.org/2000/svg" viewBox="0 0 1000 1000">
  <defs>
    <linearGradient id="gradGold" x1="0" y1="0" x2="1" y2="1">
      <stop offset="0%" stop-color="#f6e7b9"/>
      <stop offset="50%" stop-color="#e6c874"/>
      <stop offset="100%" stop-color="#b78b2a"/>
    </linearGradient>
  </defs>
  <g stroke-linecap="round" stroke-linejoin="round">
    <g transform="translate(80,80)">
      <path d="M0,170 C80,125 125,80 170,0" stroke="url(#gradGold)" stroke-width="9" fill="none" opacity=".75"/>
      <path d="M34,126 Q86,104 104,58" stroke="#f6e7b9" stroke-width="3.5" fill="none" opacity=".55"/>
      <path d="M20,150 Q62,132 80,100" stroke="#f6e7b9" stroke-width="3"   fill="none" opacity=".48"/>
      <circle cx="28" cy="138" r="5" fill="#f6e7b9" opacity=".65"/>
    </g>
    <g transform="translate(920,80) scale(-1,1)">
      <path d="M0,170 C80,125 125,80 170,0" stroke="url(#gradGold)" stroke-width="9" fill="none" opacity=".75"/>
      <path d="M34,126 Q86,104 104,58" stroke="#f6e7b9" stroke-width="3.5" fill="none" opacity=".55"/>
      <path d="M20,150 Q62,132 80,100" stroke="#f6e7b9" stroke-width="3"   fill="none" opacity=".48"/>
      <circle cx="28" cy="138" r="5" fill="#f6e7b9" opacity=".65"/>
    </g>
    <g transform="translate(920,920) scale(-1,-1)">
      <path d="M0,170 C80,125 125,80 170,0" stroke="url(#gradGold)" stroke-width="9" fill="none" opacity=".75"/>
      <path d="M34,126 Q86,104 104,58" stroke="#f6e7b9" stroke-width="3.5" fill="none" opacity=".55"/>
      <path d="M20,150 Q62,132 80,100" stroke="#f6e7b9" stroke-width="3"   fill="none" opacity=".48"/>
      <circle cx="28" cy="138" r="5" fill="#f6e7b9" opacity=".65"/>
    </g>
    <g transform="translate(80,920) scale(1,-1)">
      <path d="M0,170 C80,125 125,80 170,0" stroke="url(#gradGold)" stroke-width="9" fill="none" opacity=".75"/>
      <path d="M34,126 Q86,104 104,58" stroke="#f6e7b9" stroke-width="3.5" fill="none" opacity=".55"/>
      <path d="M20,150 Q62,132 80,100" stroke="#f6e7b9" stroke-width="3"   fill="none" opacity=".48"/>
      <circle cx="28" cy="138" r="5" fill="#f6e7b9" opacity=".65"/>
    </g>
  </g>
</svg>
